<svg width="24" height="24" xmlns="http://www.w3.org/2000/svg" fill-rule="evenodd" clip-rule="evenodd"><path d="M16.306 22.704l-1.793-4.704.535 4.85c-.939.092-1.967.15-3.077.15-1.065 0-2.055-.053-2.96-.136l.536-4.864-1.8 4.721c-2.095-.282-3.605-.707-4.346-.948l5.526-10.773h6.272l5.41 10.746c-.736.241-2.23.669-4.303.958m-8.716-17.178l-2.443.802-1.026-1.63 4.093-3.461c.314.863 1.401 3.263 3.802 3.263 2.542 0 3.509-2.606 3.725-3.311l4.169 3.51-1.025 1.629-2.453-.805-1.167 4.477h-6.415l-1.26-4.474zm6.907-3.908c-.383.8-1.149 1.882-2.481 1.882-1.3 0-2.111-1.071-2.545-1.899 1.93.606 3.308.55 5.026.017m1.636 9.015l.998-3.828 2.184.716 1.906-3.026-5.356-4.508c-.879.438-3.632 2.018-7.722.001l-5.332 4.508 1.906 3.025 2.193-.719 1.08 3.833-5.99 11.677.507.206c.15.061 3.725 1.482 9.464 1.482 5.739 0 9.375-1.447 9.526-1.51l.503-.203-5.867-11.654z"/></svg>