<svg width="43" height="43" viewBox="0 0 43 43" fill="none" xmlns="http://www.w3.org/2000/svg">
<path d="M37.9789 21.4296H5.02112L8.13353 38.5819H34.8665L37.9789 21.4296Z" fill="black"/>
<path d="M38.5693 13.7034H4.4307C2.6283 13.7034 1.16718 15.1645 1.16718 16.9667V18.1659C1.16718 19.9683 2.6283 21.4295 4.4307 21.4295H38.5693C40.3717 21.4295 41.8329 19.9683 41.8329 18.1659V16.9667C41.8329 15.1645 40.3717 13.7034 38.5693 13.7034Z" fill="black"/>
<path d="M38.5693 12.5362H32.4359L26.0165 3.73056C25.6368 3.20986 24.9066 3.09532 24.3857 3.47503C23.8647 3.85475 23.7504 4.58492 24.1301 5.10578L29.5469 12.5362H13.4529L18.8698 5.10578C19.2495 4.58492 19.1351 3.85475 18.6141 3.47503C18.0934 3.09563 17.3631 3.20955 16.9833 3.73056L10.564 12.5362H4.43067C1.98743 12.5362 0 14.5238 0 16.9669V18.1661C0 20.4786 1.78108 22.3817 4.04333 22.5787L6.98503 38.7903C7.08572 39.3454 7.56923 39.7491 8.13351 39.7491H34.8665C35.4308 39.7491 35.9141 39.3454 36.015 38.7903L38.9567 22.5787C41.2189 22.3817 43 20.4785 43 18.1661V16.9669C43 14.5238 41.0124 12.5362 38.5693 12.5362ZM33.892 37.415H9.10785L6.41904 22.5968H36.5808L33.892 37.415ZM40.6657 18.1661C40.6657 19.322 39.7253 20.2625 38.5693 20.2625C37.6647 20.2625 6.47071 20.2625 4.43067 20.2625C3.27472 20.2625 2.33431 19.322 2.33431 18.1661V16.9669C2.33431 15.8109 3.27472 14.8705 4.43067 14.8705C5.74053 14.8705 37.0075 14.8705 38.5693 14.8705C39.7253 14.8705 40.6657 15.8109 40.6657 16.9669V18.1661Z" fill="white"/>
<path d="M14.0301 34.6136C14.6749 34.6136 15.1973 34.091 15.1973 33.4465V26.5652C15.1973 25.9206 14.6749 25.3981 14.0301 25.3981C13.3854 25.3981 12.863 25.9206 12.863 26.5652V33.4465C12.863 34.091 13.3856 34.6136 14.0301 34.6136Z" fill="white"/>
<path d="M19.01 34.6136C19.6547 34.6136 20.1771 34.091 20.1771 33.4465V26.5652C20.1771 25.9206 19.6547 25.3981 19.01 25.3981C18.3653 25.3981 17.8428 25.9206 17.8428 26.5652V33.4465C17.8428 34.091 18.3654 34.6136 19.01 34.6136Z" fill="white"/>
<path d="M23.9898 34.6136C24.6346 34.6136 25.157 34.091 25.157 33.4465V26.5652C25.157 25.9206 24.6346 25.3981 23.9898 25.3981C23.3451 25.3981 22.8227 25.9206 22.8227 26.5652V33.4465C22.8227 34.091 23.3453 34.6136 23.9898 34.6136Z" fill="white"/>
<path d="M28.9697 34.6136C29.6144 34.6136 30.1369 34.091 30.1369 33.4465V26.5652C30.1369 25.9206 29.6144 25.3981 28.9697 25.3981C28.325 25.3981 27.8026 25.9206 27.8026 26.5652V33.4465C27.8026 34.091 28.3251 34.6136 28.9697 34.6136Z" fill="white"/>
</svg>
