<svg width="16" height="15" viewBox="0 0 16 15" fill="none" xmlns="http://www.w3.org/2000/svg">
<path d="M14.67 8.82771L15.9831 2.73396C16.0779 2.29397 15.7609 1.875 15.3331 1.875H4.42245L4.16783 0.562207C4.10439 0.23499 3.83139 0 3.5147 0H0.666667C0.298472 0 0 0.314795 0 0.703125V1.17188C0 1.56021 0.298472 1.875 0.666667 1.875H2.60786L4.5592 11.9366C4.09236 12.2197 3.77778 12.7506 3.77778 13.3594C3.77778 14.2655 4.47422 15 5.33333 15C6.19245 15 6.88889 14.2655 6.88889 13.3594C6.88889 12.9002 6.70981 12.4853 6.42156 12.1875H12.2451C11.9569 12.4853 11.7778 12.9002 11.7778 13.3594C11.7778 14.2655 12.4742 15 13.3333 15C14.1924 15 14.8889 14.2655 14.8889 13.3594C14.8889 12.7098 14.5309 12.1485 14.0117 11.8827L14.1649 11.1715C14.2598 10.7315 13.9427 10.3125 13.5149 10.3125H6.05881L5.877 9.375H14.0199C14.3312 9.375 14.601 9.14783 14.67 8.82771Z" fill="black"/>
</svg>
