<svg width="151" height="129" viewBox="0 0 151 129" fill="none" xmlns="http://www.w3.org/2000/svg">
<path d="M132.313 80.625H55.4642L57.18 88.6875H127.547C131.584 88.6875 134.576 92.2907 133.682 96.0745L132.235 102.191C137.135 104.477 140.514 109.304 140.514 114.891C140.514 122.752 133.824 129.112 125.617 128.998C117.799 128.89 111.369 122.793 111.158 115.28C111.043 111.177 112.754 107.457 115.563 104.812H60.6034C63.3238 107.374 65.0139 110.941 65.0139 114.891C65.0139 122.906 58.0595 129.361 49.6334 128.984C42.1516 128.651 36.0667 122.84 35.6735 115.652C35.3699 110.1 38.4093 105.207 43.0271 102.654L24.6117 16.125H6.29167C2.81683 16.125 0 13.4178 0 10.0781V6.04687C0 2.70724 2.81683 0 6.29167 0H33.1699C36.1587 0 38.7349 2.02092 39.3339 4.83498L41.7368 16.125H144.706C148.743 16.125 151.736 19.7282 150.841 23.512L138.448 75.9182C137.797 78.6713 135.251 80.625 132.313 80.625ZM105.655 48.375H94.375V33.2578C94.375 31.5881 92.9665 30.2344 91.2292 30.2344H84.9375C83.2002 30.2344 81.7917 31.5881 81.7917 33.2578V48.375H70.5115C67.7088 48.375 66.3053 51.6317 68.2871 53.5362L85.859 70.4244C87.0874 71.6051 89.0793 71.6051 90.308 70.4244L107.88 53.5362C109.861 51.6317 108.458 48.375 105.655 48.375Z" fill="#75E8A4"/>
</svg>
