<svg width="64" height="64" viewBox="0 0 64 64" fill="none" xmlns="http://www.w3.org/2000/svg">
<path d="M38 6C38 9.31375 35.3138 12 32 12C28.6862 12 26 9.31375 26 6C26 2.68625 28.6862 0 32 0C35.3138 0 38 2.68625 38 6ZM32 52C28.6862 52 26 54.6862 26 58C26 61.3138 28.6862 64 32 64C35.3138 64 38 61.3138 38 58C38 54.6862 35.3138 52 32 52ZM58 26C54.6862 26 52 28.6862 52 32C52 35.3138 54.6862 38 58 38C61.3138 38 64 35.3138 64 32C64 28.6862 61.3138 26 58 26ZM12 32C12 28.6862 9.31375 26 6 26C2.68625 26 0 28.6862 0 32C0 35.3138 2.68625 38 6 38C9.31375 38 12 35.3138 12 32ZM13.6152 44.3848C10.3015 44.3848 7.61525 47.071 7.61525 50.3848C7.61525 53.6985 10.3015 56.3848 13.6152 56.3848C16.929 56.3848 19.6152 53.6985 19.6152 50.3848C19.6152 47.0711 16.9289 44.3848 13.6152 44.3848ZM50.3848 44.3848C47.071 44.3848 44.3848 47.071 44.3848 50.3848C44.3848 53.6985 47.071 56.3848 50.3848 56.3848C53.6985 56.3848 56.3848 53.6985 56.3848 50.3848C56.3848 47.0711 53.6985 44.3848 50.3848 44.3848ZM13.6152 7.61525C10.3015 7.61525 7.61525 10.3015 7.61525 13.6152C7.61525 16.929 10.3015 19.6152 13.6152 19.6152C16.929 19.6152 19.6152 16.929 19.6152 13.6152C19.6152 10.3015 16.9289 7.61525 13.6152 7.61525Z" fill="#75E8A4"/>
<path d="M38 6C38 9.31375 35.3138 12 32 12C28.6862 12 26 9.31375 26 6C26 2.68625 28.6862 0 32 0C35.3138 0 38 2.68625 38 6ZM32 52C28.6862 52 26 54.6862 26 58C26 61.3138 28.6862 64 32 64C35.3138 64 38 61.3138 38 58C38 54.6862 35.3138 52 32 52ZM58 26C54.6862 26 52 28.6862 52 32C52 35.3138 54.6862 38 58 38C61.3138 38 64 35.3138 64 32C64 28.6862 61.3138 26 58 26ZM12 32C12 28.6862 9.31375 26 6 26C2.68625 26 0 28.6862 0 32C0 35.3138 2.68625 38 6 38C9.31375 38 12 35.3138 12 32ZM13.6152 44.3848C10.3015 44.3848 7.61525 47.071 7.61525 50.3848C7.61525 53.6985 10.3015 56.3848 13.6152 56.3848C16.929 56.3848 19.6152 53.6985 19.6152 50.3848C19.6152 47.0711 16.9289 44.3848 13.6152 44.3848ZM50.3848 44.3848C47.071 44.3848 44.3848 47.071 44.3848 50.3848C44.3848 53.6985 47.071 56.3848 50.3848 56.3848C53.6985 56.3848 56.3848 53.6985 56.3848 50.3848C56.3848 47.0711 53.6985 44.3848 50.3848 44.3848ZM13.6152 7.61525C10.3015 7.61525 7.61525 10.3015 7.61525 13.6152C7.61525 16.929 10.3015 19.6152 13.6152 19.6152C16.929 19.6152 19.6152 16.929 19.6152 13.6152C19.6152 10.3015 16.9289 7.61525 13.6152 7.61525Z" fill="url(#paint0_linear_44_5)" fill-opacity="0.2"/>
<defs>
<linearGradient id="paint0_linear_44_5" x1="40" y1="53" x2="16" y2="40" gradientUnits="userSpaceOnUse">
<stop/>
<stop offset="1" stop-opacity="0"/>
</linearGradient>
</defs>
</svg>
