<svg width="146" height="53" viewBox="0 0 146 53" fill="none" xmlns="http://www.w3.org/2000/svg">
<rect y="14.3698" width="32.3477" height="43.0629" transform="rotate(-26.374 0 14.3698)" fill="#75E8A4"/>
<path d="M15.18 25.64L13.14 27.02C13.6 27.94 14.19 28.81 14.91 29.63C15.65 30.43 16.5 31.08 17.46 31.58C18.44 32.06 19.5 32.3 20.64 32.3C21.48 32.3 22.28 32.16 23.04 31.88C23.82 31.6 24.51 31.2 25.11 30.68C25.73 30.16 26.21 29.53 26.55 28.79C26.91 28.05 27.09 27.22 27.09 26.3C27.09 25.34 26.92 24.52 26.58 23.84C26.24 23.14 25.8 22.55 25.26 22.07C24.74 21.57 24.17 21.16 23.55 20.84C22.93 20.52 22.34 20.26 21.78 20.06C20.56 19.64 19.59 19.22 18.87 18.8C18.17 18.36 17.67 17.9 17.37 17.42C17.07 16.92 16.92 16.38 16.92 15.8C16.92 15.12 17.18 14.51 17.7 13.97C18.22 13.41 19.05 13.13 20.19 13.13C21.01 13.13 21.7 13.29 22.26 13.61C22.84 13.93 23.33 14.34 23.73 14.84C24.13 15.34 24.46 15.85 24.72 16.37L26.91 15.11C26.57 14.37 26.1 13.67 25.5 13.01C24.9 12.33 24.17 11.78 23.31 11.36C22.47 10.92 21.48 10.7 20.34 10.7C19.16 10.7 18.11 10.94 17.19 11.42C16.27 11.88 15.55 12.52 15.03 13.34C14.51 14.16 14.25 15.09 14.25 16.13C14.25 17.09 14.43 17.9 14.79 18.56C15.17 19.22 15.65 19.78 16.23 20.24C16.81 20.68 17.42 21.05 18.06 21.35C18.7 21.63 19.28 21.86 19.8 22.04C20.6 22.32 21.35 22.64 22.05 23C22.77 23.34 23.35 23.79 23.79 24.35C24.23 24.91 24.45 25.66 24.45 26.6C24.45 27.56 24.11 28.35 23.43 28.97C22.75 29.59 21.85 29.9 20.73 29.9C19.89 29.9 19.14 29.72 18.48 29.36C17.82 29 17.22 28.5 16.68 27.86C16.16 27.22 15.66 26.48 15.18 25.64ZM28.5855 18.2V20.45H35.4855V18.2H28.5855ZM30.8355 13.4V32H33.2355V13.4H30.8355ZM48.8426 18.2H46.1426L41.8826 28.88L42.8726 29L38.4926 18.2H35.6426L40.9226 30.05L37.1426 38.6H39.8426L48.8426 18.2ZM51.1055 8.60001V32H53.5055V8.60001H51.1055ZM63.3595 32.3C64.8395 32.3 66.1195 32.01 67.1995 31.43C68.2995 30.83 69.2095 29.95 69.9295 28.79L67.9795 27.56C67.4795 28.4 66.8695 29.03 66.1495 29.45C65.4295 29.85 64.5995 30.05 63.6595 30.05C62.7195 30.05 61.9195 29.85 61.2595 29.45C60.5995 29.05 60.0995 28.47 59.7595 27.71C59.4195 26.95 59.2495 26.03 59.2495 24.95C59.2695 23.89 59.4495 23 59.7895 22.28C60.1495 21.54 60.6495 20.98 61.2895 20.6C61.9495 20.2 62.7395 20 63.6595 20C64.4395 20 65.1195 20.17 65.6995 20.51C66.2795 20.85 66.7295 21.32 67.0495 21.92C67.3895 22.52 67.5595 23.23 67.5595 24.05C67.5595 24.19 67.5295 24.37 67.4695 24.59C67.4095 24.79 67.3495 24.94 67.2895 25.04L68.2495 23.66H58.3495V25.7H70.1395C70.1395 25.66 70.1395 25.57 70.1395 25.43C70.1595 25.27 70.1695 25.12 70.1695 24.98C70.1695 23.52 69.9095 22.26 69.3895 21.2C68.8695 20.14 68.1195 19.33 67.1395 18.77C66.1795 18.19 65.0195 17.9 63.6595 17.9C62.2995 17.9 61.0995 18.2 60.0595 18.8C59.0395 19.4 58.2395 20.24 57.6595 21.32C57.0995 22.4 56.8195 23.66 56.8195 25.1C56.8195 26.52 57.0895 27.77 57.6295 28.85C58.1895 29.93 58.9595 30.78 59.9395 31.4C60.9395 32 62.0795 32.3 63.3595 32.3ZM83.3831 25.64L81.3431 27.02C81.8031 27.94 82.3931 28.81 83.1131 29.63C83.8531 30.43 84.7031 31.08 85.6631 31.58C86.6431 32.06 87.7031 32.3 88.8431 32.3C89.6831 32.3 90.4831 32.16 91.2431 31.88C92.0231 31.6 92.7131 31.2 93.3131 30.68C93.9331 30.16 94.4131 29.53 94.7531 28.79C95.1131 28.05 95.2931 27.22 95.2931 26.3C95.2931 25.34 95.1231 24.52 94.7831 23.84C94.4431 23.14 94.0031 22.55 93.4631 22.07C92.9431 21.57 92.3731 21.16 91.7531 20.84C91.1331 20.52 90.5431 20.26 89.9831 20.06C88.7631 19.64 87.7931 19.22 87.0731 18.8C86.3731 18.36 85.8731 17.9 85.5731 17.42C85.2731 16.92 85.1231 16.38 85.1231 15.8C85.1231 15.12 85.3831 14.51 85.9031 13.97C86.4231 13.41 87.2531 13.13 88.3931 13.13C89.2131 13.13 89.9031 13.29 90.4631 13.61C91.0431 13.93 91.5331 14.34 91.9331 14.84C92.3331 15.34 92.6631 15.85 92.9231 16.37L95.1131 15.11C94.7731 14.37 94.3031 13.67 93.7031 13.01C93.1031 12.33 92.3731 11.78 91.5131 11.36C90.6731 10.92 89.6831 10.7 88.5431 10.7C87.3631 10.7 86.3131 10.94 85.3931 11.42C84.4731 11.88 83.7531 12.52 83.2331 13.34C82.7131 14.16 82.4531 15.09 82.4531 16.13C82.4531 17.09 82.6331 17.9 82.9931 18.56C83.3731 19.22 83.8531 19.78 84.4331 20.24C85.0131 20.68 85.6231 21.05 86.2631 21.35C86.9031 21.63 87.4831 21.86 88.0031 22.04C88.8031 22.32 89.5531 22.64 90.2531 23C90.9731 23.34 91.5531 23.79 91.9931 24.35C92.4331 24.91 92.6531 25.66 92.6531 26.6C92.6531 27.56 92.3131 28.35 91.6331 28.97C90.9531 29.59 90.0531 29.9 88.9331 29.9C88.0931 29.9 87.3431 29.72 86.6831 29.36C86.0231 29 85.4231 28.5 84.8831 27.86C84.3631 27.22 83.8631 26.48 83.3831 25.64ZM96.7887 18.2V20.45H103.689V18.2H96.7887ZM99.0387 13.4V32H101.439V13.4H99.0387ZM104.896 25.1C104.896 26.48 105.206 27.72 105.826 28.82C106.466 29.9 107.326 30.75 108.406 31.37C109.486 31.99 110.696 32.3 112.036 32.3C113.396 32.3 114.606 31.99 115.666 31.37C116.746 30.75 117.596 29.9 118.216 28.82C118.856 27.72 119.176 26.48 119.176 25.1C119.176 23.7 118.856 22.46 118.216 21.38C117.596 20.3 116.746 19.45 115.666 18.83C114.606 18.21 113.396 17.9 112.036 17.9C110.696 17.9 109.486 18.21 108.406 18.83C107.326 19.45 106.466 20.3 105.826 21.38C105.206 22.46 104.896 23.7 104.896 25.1ZM107.326 25.1C107.326 24.14 107.526 23.29 107.926 22.55C108.346 21.79 108.906 21.2 109.606 20.78C110.326 20.36 111.136 20.15 112.036 20.15C112.936 20.15 113.736 20.36 114.436 20.78C115.156 21.2 115.716 21.79 116.116 22.55C116.536 23.29 116.746 24.14 116.746 25.1C116.746 26.06 116.536 26.91 116.116 27.65C115.716 28.39 115.156 28.98 114.436 29.42C113.736 29.84 112.936 30.05 112.036 30.05C111.136 30.05 110.326 29.84 109.606 29.42C108.906 28.98 108.346 28.39 107.926 27.65C107.526 26.91 107.326 26.06 107.326 25.1ZM124.873 18.2H122.473V32H124.873V18.2ZM129.043 20.84L130.363 18.86C130.003 18.48 129.603 18.23 129.163 18.11C128.743 17.97 128.283 17.9 127.783 17.9C127.143 17.9 126.513 18.15 125.893 18.65C125.273 19.15 124.763 19.83 124.363 20.69C123.983 21.53 123.793 22.5 123.793 23.6H124.873C124.873 22.94 124.933 22.35 125.053 21.83C125.193 21.31 125.433 20.9 125.773 20.6C126.113 20.3 126.583 20.15 127.183 20.15C127.583 20.15 127.913 20.21 128.173 20.33C128.433 20.43 128.723 20.6 129.043 20.84ZM137.656 32.3C139.136 32.3 140.416 32.01 141.496 31.43C142.596 30.83 143.506 29.95 144.226 28.79L142.276 27.56C141.776 28.4 141.166 29.03 140.446 29.45C139.726 29.85 138.896 30.05 137.956 30.05C137.016 30.05 136.216 29.85 135.556 29.45C134.896 29.05 134.396 28.47 134.056 27.71C133.716 26.95 133.546 26.03 133.546 24.95C133.566 23.89 133.746 23 134.086 22.28C134.446 21.54 134.946 20.98 135.586 20.6C136.246 20.2 137.036 20 137.956 20C138.736 20 139.416 20.17 139.996 20.51C140.576 20.85 141.026 21.32 141.346 21.92C141.686 22.52 141.856 23.23 141.856 24.05C141.856 24.19 141.826 24.37 141.766 24.59C141.706 24.79 141.646 24.94 141.586 25.04L142.546 23.66H132.646V25.7H144.436C144.436 25.66 144.436 25.57 144.436 25.43C144.456 25.27 144.466 25.12 144.466 24.98C144.466 23.52 144.206 22.26 143.686 21.2C143.166 20.14 142.416 19.33 141.436 18.77C140.476 18.19 139.316 17.9 137.956 17.9C136.596 17.9 135.396 18.2 134.356 18.8C133.336 19.4 132.536 20.24 131.956 21.32C131.396 22.4 131.116 23.66 131.116 25.1C131.116 26.52 131.386 27.77 131.926 28.85C132.486 29.93 133.256 30.78 134.236 31.4C135.236 32 136.376 32.3 137.656 32.3Z" fill="black"/>
</svg>
