<?xml version="1.0" encoding="iso-8859-1"?>
<!-- Generator: Adobe Illustrator 18.1.1, SVG Export Plug-In . SVG Version: 6.00 Build 0)  -->
<svg version="1.1" id="Capa_1" xmlns="http://www.w3.org/2000/svg" xmlns:xlink="http://www.w3.org/1999/xlink" x="0px" y="0px"
 width='25px'	 viewBox="0 0 217.791 217.791" style="enable-background:new 0 0 217.791 217.791;" xml:space="preserve">
<g>
	<g>
		<path style="fill:#fff;" d="M187.129,0H36.465c-7.864,0-14.667,6.122-15.49,13.951L1.332,201.979
			c-0.43,4.081,0.871,8.127,3.556,11.11c2.691,2.989,6.587,4.702,10.693,4.702h186.465c4.052,0,7.936-1.677,10.651-4.6
			c2.715-2.924,4.105-6.922,3.801-10.961L202.47,14.237C201.873,6.253,195.136,0,187.129,0z M19.549,199.89l19.01-181.99h146.224
			l13.587,181.99H19.549z"/>
		<path style="fill:#fff;" d="M148.344,35.055c-7.817,0-14.171,6.355-14.171,14.171c0,6.79,4.803,12.471,11.188,13.843
			c-0.591,9.887-3.055,24.482-11.868,33.79c-6.009,6.343-14.315,9.356-24.584,9.052c-10.358-0.346-18.73-3.998-24.876-10.86
			c-8.175-9.105-11.122-22.256-12.131-32.102c6.188-1.522,10.806-7.077,10.806-13.724c0-7.817-6.355-14.171-14.171-14.171
			S54.366,41.41,54.366,49.227c0,6.904,4.97,12.656,11.522,13.903C66.932,73.876,70.16,88.513,79.57,99.02
			c7.28,8.127,17.083,12.459,29.142,12.859c0.597,0.018,1.187,0.03,1.778,0.03c11.277,0,20.478-3.682,27.352-10.961
			c10.233-10.824,12.942-27.102,13.533-37.896c6.355-1.396,11.134-7.059,11.134-13.825C162.515,41.41,156.161,35.055,148.344,35.055
			z M60.333,49.227c0-4.523,3.682-8.204,8.204-8.204c4.523,0,8.204,3.682,8.204,8.204c0,3.485-2.196,6.45-5.269,7.638
			c-0.167-4.427,0.036-7.315,0.042-7.411c0.125-1.641-1.104-3.079-2.745-3.198c-1.683-0.167-3.079,1.104-3.204,2.745
			c-0.03,0.382-0.233,3.377-0.09,7.823C62.469,55.605,60.333,52.664,60.333,49.227z M151.519,56.787
			c-0.036-2.745-0.173-4.559-0.203-4.845c-0.149-1.641-1.617-2.828-3.234-2.703c-1.641,0.143-2.852,1.599-2.709,3.234
			c0.006,0.072,0.137,1.754,0.155,4.427c-3.133-1.152-5.388-4.141-5.388-7.673c0-4.523,3.682-8.204,8.204-8.204
			s8.204,3.682,8.204,8.204C156.549,52.622,154.472,55.546,151.519,56.787z"/>
	</g>
</g>
<g>
</g>
<g>
</g>
<g>
</g>
<g>
</g>
<g>
</g>
<g>
</g>
<g>
</g>
<g>
</g>
<g>
</g>
<g>
</g>
<g>
</g>
<g>
</g>
<g>
</g>
<g>
</g>
<g>
</g>
</svg>
